# xmcd
#
# Track frame offsets:
# 150
# 16428
# 36269
# 61263
# 80820
# 99211
# 119626
# 133408
#
# Disc length: 1960 seconds
#
# Revision: 0
# Processed by: cddbd v1.5.1PL2 Copyright (c) Steve Scherf et al.
# Submitted via: Audion 3.0.2 (http://www.panic.com/audion/)
#
DISCID=6e07a608
DTITLE=Huang Fei - Huang Fei Hong
DYEAR=1900
DGENRE=
TTITLE0=1 - 
TTITLE1=2 - 
TTITLE2=3 - 
TTITLE3=4 - 
TTITLE4=5 - 
TTITLE5=6 - 
TTITLE6=7 - 
TTITLE7=8 - 
EXTD=
EXTT0=
EXTT1=
EXTT2=
EXTT3=
EXTT4=
EXTT5=
EXTT6=
EXTT7=
PLAYORDER=
